<svg xmlns="http://www.w3.org/2000/svg" xmlns:xlink="http://www.w3.org/1999/xlink" width="38.151" height="38.149" viewBox="0 0 38.151 38.149"><defs><clipPath id="a"><rect width="38.151" height="38.149" fill="none"/></clipPath></defs><g transform="translate(568 158)"><g transform="translate(-568 -158)" clip-path="url(#a)"><path d="M18.9,37.544A18.647,18.647,0,1,1,37.543,18.9,18.67,18.67,0,0,1,18.9,37.544m0-35.4A16.749,16.749,0,1,0,35.646,18.9,16.769,16.769,0,0,0,18.9,2.148" transform="translate(0.178 0.178)" fill="#79a3d2"/><path d="M18.9,37.544A18.647,18.647,0,1,1,37.543,18.9,18.67,18.67,0,0,1,18.9,37.544Zm0-35.4A16.749,16.749,0,1,0,35.646,18.9,16.769,16.769,0,0,0,18.9,2.148Z" transform="translate(0.178 0.178)" fill="none" stroke="#79a3d2" stroke-miterlimit="10" stroke-width="0.5"/><path d="M7.051,18.945a.949.949,0,0,1-.611-1.675l7.69-6.453a.949.949,0,0,1,1.22,1.454L7.66,18.723a.937.937,0,0,1-.609.222" transform="translate(4.336 7.53)" fill="#79a3d2"/><path d="M7.051,18.945a.949.949,0,0,1-.611-1.675l7.69-6.453a.949.949,0,0,1,1.22,1.454L7.66,18.723A.937.937,0,0,1,7.051,18.945Z" transform="translate(4.336 7.53)" fill="none" stroke="#79a3d2" stroke-miterlimit="10" stroke-width="0.5"/><path d="M11.546,17.975a.95.95,0,0,1-.951-.949V3.829a.949.949,0,1,1,1.9,0v13.2a.948.948,0,0,1-.948.949" transform="translate(7.53 2.047)" fill="#79a3d2"/><path d="M11.546,17.975a.95.95,0,0,1-.951-.949V3.829a.949.949,0,1,1,1.9,0v13.2A.948.948,0,0,1,11.546,17.975Z" transform="translate(7.53 2.047)" fill="none" stroke="#79a3d2" stroke-miterlimit="10" stroke-width="0.5"/></g></g></svg>