<svg xmlns="http://www.w3.org/2000/svg" xmlns:xlink="http://www.w3.org/1999/xlink" width="37.387" height="42.37" viewBox="0 0 37.387 42.37"><defs><clipPath id="a"><rect width="37.387" height="42.37" fill="none"/></clipPath></defs><g transform="translate(320 163)"><g transform="translate(-320 -163)" clip-path="url(#a)"><path d="M36.469,8.3a.878.878,0,0,0-.7-.185l-6.01,1.1A10.666,10.666,0,0,0,8.77,8.808L.954,10.245a.861.861,0,0,0-.7.845V40.9a.853.853,0,0,0,.311.659.844.844,0,0,0,.548.2.923.923,0,0,0,.155-.014l11.448-2.1,11.449,2.1a.977.977,0,0,0,.156.014.94.94,0,0,0,.155-.014l11.6-2.131a.859.859,0,0,0,.7-.845V8.957a.859.859,0,0,0-.309-.659M19.234,1.967a8.967,8.967,0,0,1,8.954,8.958c0,3.884-5.938,12.67-8.954,16.724-3.02-4.054-8.958-12.84-8.958-16.724a8.967,8.967,0,0,1,8.958-8.958M1.967,39.873V11.8l6.609-1.212c-.005.112-.017.22-.017.333,0,2.215,1.478,5.481,3.293,8.666V38.056Zm11.6-1.817V22.443c2.394,3.776,4.784,6.894,4.985,7.153a.859.859,0,0,0,1.358,0c.158-.206,1.712-2.236,3.546-4.957V39.873Zm21.492,0-9.887,1.817V22c2.406-3.85,4.724-8.28,4.73-11.061l5.156-.946Z" transform="translate(0.179 0.179)" fill="#79a3d2"/><path d="M36.469,8.3a.878.878,0,0,0-.7-.185l-6.01,1.1A10.666,10.666,0,0,0,8.77,8.808L.954,10.245a.861.861,0,0,0-.7.845V40.9a.853.853,0,0,0,.311.659.844.844,0,0,0,.548.2.923.923,0,0,0,.155-.014l11.448-2.1,11.449,2.1a.977.977,0,0,0,.156.014.94.94,0,0,0,.155-.014l11.6-2.131a.859.859,0,0,0,.7-.845V8.957A.859.859,0,0,0,36.469,8.3ZM19.234,1.967a8.967,8.967,0,0,1,8.954,8.958c0,3.884-5.938,12.67-8.954,16.724-3.02-4.054-8.958-12.84-8.958-16.724A8.967,8.967,0,0,1,19.234,1.967ZM1.967,39.873V11.8l6.609-1.212c-.005.112-.017.22-.017.333,0,2.215,1.478,5.481,3.293,8.666V38.056Zm11.6-1.817V22.443c2.394,3.776,4.784,6.894,4.985,7.153a.859.859,0,0,0,1.358,0c.158-.206,1.712-2.236,3.546-4.957V39.873Zm21.492,0-9.887,1.817V22c2.406-3.85,4.724-8.28,4.73-11.061l5.156-.946Z" transform="translate(0.179 0.179)" fill="none" stroke="#79a3d2" stroke-miterlimit="10" stroke-width="0.5"/><path d="M17.487,13.4V9.613a.849.849,0,0,0,1.077-1.3L14.125,3.87a.859.859,0,0,0-1.214,0L8.472,8.308a.856.856,0,0,0,0,1.214.844.844,0,0,0,1.077.091V13.4a.859.859,0,0,0,.859.859h6.221a.859.859,0,0,0,.859-.859m-6.221-.859v-4.6l2.251-2.251L15.77,7.943v4.6Z" transform="translate(5.894 2.594)" fill="#79a3d2"/><path d="M17.487,13.4V9.613a.849.849,0,0,0,1.077-1.3L14.125,3.87a.859.859,0,0,0-1.214,0L8.472,8.308a.856.856,0,0,0,0,1.214.844.844,0,0,0,1.077.091V13.4a.859.859,0,0,0,.859.859h6.221A.859.859,0,0,0,17.487,13.4Zm-6.221-.859v-4.6l2.251-2.251L15.77,7.943v4.6Z" transform="translate(5.894 2.594)" fill="none" stroke="#79a3d2" stroke-miterlimit="10" stroke-width="0.5"/></g></g></svg>