<svg xmlns="http://www.w3.org/2000/svg" xmlns:xlink="http://www.w3.org/1999/xlink" width="41.785" height="33.727" viewBox="0 0 41.785 33.727"><defs><clipPath id="a"><rect width="41.785" height="33.727" fill="none"/></clipPath></defs><g transform="translate(0 0)"><g transform="translate(0 0)" clip-path="url(#a)"><path d="M16.75,15.151a.806.806,0,0,1-.518-.188L.634,1.833A.8.8,0,1,1,1.67.6L16.75,13.3,31.829.6a.8.8,0,1,1,1.035,1.232l-15.6,13.127a.806.806,0,0,1-.518.188" transform="translate(0.211 0.25)" fill="#79a3d2"/><path d="M16.75,15.151a.806.806,0,0,1-.518-.188L.634,1.833A.8.8,0,1,1,1.67.6L16.75,13.3,31.829.6a.8.8,0,1,1,1.035,1.232l-15.6,13.127A.806.806,0,0,1,16.75,15.151Z" transform="translate(0.211 0.25)" fill="none" stroke="#79a3d2" stroke-miterlimit="10" stroke-width="0.5"/><path d="M23.384,21.52H1.858V1.858h29.9V14.311c.167-.01.325-.05.5-.05a7.474,7.474,0,0,1,1.113.113V1.054a.8.8,0,0,0-.8-.8H1.054a.8.8,0,0,0-.8.8v21.27a.8.8,0,0,0,.8.8H23.487a7.5,7.5,0,0,1-.133-1.31c0-.1.026-.2.031-.3" transform="translate(0.152 0.152)" fill="#79a3d2"/><path d="M23.384,21.52H1.858V1.858h29.9V14.311c.167-.01.325-.05.5-.05a7.474,7.474,0,0,1,1.113.113V1.054a.8.8,0,0,0-.8-.8H1.054a.8.8,0,0,0-.8.8v21.27a.8.8,0,0,0,.8.8H23.487a7.5,7.5,0,0,1-.133-1.31C23.353,21.715,23.379,21.622,23.384,21.52Z" transform="translate(0.152 0.152)" fill="none" stroke="#79a3d2" stroke-miterlimit="10" stroke-width="0.5"/><path d="M28.265,10.011A8.8,8.8,0,0,1,31.5,13.469a10.411,10.411,0,0,1,1.17,4.973,8.053,8.053,0,0,1-.494,2.936,4.6,4.6,0,0,1-1.363,1.969,3.125,3.125,0,0,1-2.008.695,2.571,2.571,0,0,1-1.568-.45,2.063,2.063,0,0,1-.786-1.373l-.039-.449a4.13,4.13,0,0,1-1.5,1.494,3.941,3.941,0,0,1-1.978.506,4.34,4.34,0,0,1-2.309-.664,4.846,4.846,0,0,1-1.722-1.87,5.689,5.689,0,0,1-.646-2.732,6.431,6.431,0,0,1,.558-2.706,4.772,4.772,0,0,1,1.568-1.949,3.941,3.941,0,0,1,2.334-.715,3.652,3.652,0,0,1,1.5.3,4.312,4.312,0,0,1,1.133.695,2.166,2.166,0,0,1,.564.685V13.354h2.183v7.857a1.383,1.383,0,0,0,.254.9.826.826,0,0,0,.675.3,1.252,1.252,0,0,0,.947-.506,3.7,3.7,0,0,0,.7-1.394,7.144,7.144,0,0,0,.26-2.011,8.9,8.9,0,0,0-.9-4.048,6.973,6.973,0,0,0-2.548-2.836,7.51,7.51,0,0,0-7.654.026,7.692,7.692,0,0,0-2.746,2.894,8.174,8.174,0,0,0-1.013,4.011,7.888,7.888,0,0,0,.961,3.892,7.019,7.019,0,0,0,2.619,2.711,7.162,7.162,0,0,0,3.709.976,6.737,6.737,0,0,0,2.021-.334,5.968,5.968,0,0,0,1.22-.531c.273.532.526.979.873,1.609a7.793,7.793,0,0,1-1.593.7A8.421,8.421,0,0,1,23.36,28a8.874,8.874,0,0,1-4.6-1.228,8.727,8.727,0,0,1-3.249-3.384,9.918,9.918,0,0,1-1.18-4.838,10.109,10.109,0,0,1,1.23-4.961,9.328,9.328,0,0,1,3.365-3.532,9.2,9.2,0,0,1,9.339-.047m-6.937,6.232a3.332,3.332,0,0,0-.7,2.153,3.572,3.572,0,0,0,.709,2.251,2.21,2.21,0,0,0,1.842.924,2.273,2.273,0,0,0,1.884-.9,3.551,3.551,0,0,0,.707-2.256,3.261,3.261,0,0,0-.735-2.174,2.353,2.353,0,0,0-1.9-.867,2.21,2.21,0,0,0-1.815.867" transform="translate(8.709 5.325)" fill="#79a3d2"/><path d="M28.265,10.011A8.8,8.8,0,0,1,31.5,13.469a10.411,10.411,0,0,1,1.17,4.973,8.053,8.053,0,0,1-.494,2.936,4.6,4.6,0,0,1-1.363,1.969,3.125,3.125,0,0,1-2.008.695,2.571,2.571,0,0,1-1.568-.45,2.063,2.063,0,0,1-.786-1.373l-.039-.449a4.13,4.13,0,0,1-1.5,1.494,3.941,3.941,0,0,1-1.978.506,4.34,4.34,0,0,1-2.309-.664,4.846,4.846,0,0,1-1.722-1.87,5.689,5.689,0,0,1-.646-2.732,6.431,6.431,0,0,1,.558-2.706,4.772,4.772,0,0,1,1.568-1.949,3.941,3.941,0,0,1,2.334-.715,3.652,3.652,0,0,1,1.5.3,4.312,4.312,0,0,1,1.133.695,2.166,2.166,0,0,1,.564.685V13.354h2.183v7.857a1.383,1.383,0,0,0,.254.9.826.826,0,0,0,.675.3,1.252,1.252,0,0,0,.947-.506,3.7,3.7,0,0,0,.7-1.394,7.144,7.144,0,0,0,.26-2.011,8.9,8.9,0,0,0-.9-4.048,6.973,6.973,0,0,0-2.548-2.836,7.51,7.51,0,0,0-7.654.026,7.692,7.692,0,0,0-2.746,2.894,8.174,8.174,0,0,0-1.013,4.011,7.888,7.888,0,0,0,.961,3.892,7.019,7.019,0,0,0,2.619,2.711,7.162,7.162,0,0,0,3.709.976,6.737,6.737,0,0,0,2.021-.334,5.968,5.968,0,0,0,1.22-.531c.273.532.526.979.873,1.609a7.793,7.793,0,0,1-1.593.7A8.421,8.421,0,0,1,23.36,28a8.874,8.874,0,0,1-4.6-1.228,8.727,8.727,0,0,1-3.249-3.384,9.918,9.918,0,0,1-1.18-4.838,10.109,10.109,0,0,1,1.23-4.961,9.328,9.328,0,0,1,3.365-3.532,9.2,9.2,0,0,1,9.339-.047Zm-6.937,6.232a3.332,3.332,0,0,0-.7,2.153,3.572,3.572,0,0,0,.709,2.251,2.21,2.21,0,0,0,1.842.924,2.273,2.273,0,0,0,1.884-.9,3.551,3.551,0,0,0,.707-2.256,3.261,3.261,0,0,0-.735-2.174,2.353,2.353,0,0,0-1.9-.867A2.21,2.21,0,0,0,21.328,16.243Z" transform="translate(8.709 5.325)" fill="none" stroke="#79a3d2" stroke-miterlimit="10" stroke-width="0.5"/></g></g></svg>