<svg xmlns="http://www.w3.org/2000/svg" xmlns:xlink="http://www.w3.org/1999/xlink" width="38.78" height="41.182" viewBox="0 0 38.78 41.182"><defs><clipPath id="a"><rect width="38.78" height="41.182" fill="none"/></clipPath></defs><g transform="translate(195 320)"><g transform="translate(-195 -319.999)" clip-path="url(#a)"><path d="M19.079,38.369a8.718,8.718,0,0,1-4.322-1.315C7.707,32.985.25,19.946.25,11.687c0-3.066,1.043-5.293,3.02-6.433l1.852-1.07A3.344,3.344,0,0,1,9.689,5.408l2.138,3.7a3.367,3.367,0,0,1-.8,4.266L9.8,14.1a1.771,1.771,0,0,0-.646,2.411L15.143,26.89a1.752,1.752,0,0,0,1.071.818,1.733,1.733,0,0,0,1.338-.174l1.127-.649a3.379,3.379,0,0,1,4.21,1.385l2.136,3.7A3.35,3.35,0,0,1,23.8,36.538l-1.85,1.068a5.666,5.666,0,0,1-2.874.762M6.792,5.38a1.684,1.684,0,0,0-.848.227L4.092,6.675c-1.459.845-2.2,2.531-2.2,5.012,0,7.648,7.161,20.179,13.685,23.946,2.159,1.246,4.028,1.428,5.553.55v0l1.85-1.066a1.7,1.7,0,0,0,.621-2.322l-2.135-3.7a1.718,1.718,0,0,0-2.082-.73l-1.011.595a3.413,3.413,0,0,1-4.654-1.246L7.727,17.328a3.416,3.416,0,0,1,1.247-4.657l1.126-.647a1.706,1.706,0,0,0,.3-2.1l-2.135-3.7a1.706,1.706,0,0,0-1.476-.85" transform="translate(0.161 2.402)" fill="#79a3d2"/><path d="M19.079,38.369a8.718,8.718,0,0,1-4.322-1.315C7.707,32.985.25,19.946.25,11.687c0-3.066,1.043-5.293,3.02-6.433l1.852-1.07A3.344,3.344,0,0,1,9.689,5.408l2.138,3.7a3.367,3.367,0,0,1-.8,4.266L9.8,14.1a1.771,1.771,0,0,0-.646,2.411L15.143,26.89a1.752,1.752,0,0,0,1.071.818,1.733,1.733,0,0,0,1.338-.174l1.127-.649a3.379,3.379,0,0,1,4.21,1.385l2.136,3.7A3.35,3.35,0,0,1,23.8,36.538l-1.85,1.068A5.666,5.666,0,0,1,19.079,38.369ZM6.792,5.38a1.684,1.684,0,0,0-.848.227L4.092,6.675c-1.459.845-2.2,2.531-2.2,5.012,0,7.648,7.161,20.179,13.685,23.946,2.159,1.246,4.028,1.428,5.553.55v0l1.85-1.066a1.7,1.7,0,0,0,.621-2.322l-2.135-3.7a1.718,1.718,0,0,0-2.082-.73l-1.011.595a3.413,3.413,0,0,1-4.654-1.246L7.727,17.328a3.416,3.416,0,0,1,1.247-4.657l1.126-.647a1.706,1.706,0,0,0,.3-2.1l-2.135-3.7A1.706,1.706,0,0,0,6.792,5.38Z" transform="translate(0.161 2.402)" fill="none" stroke="#79a3d2" stroke-miterlimit="10" stroke-width="0.5"/><path d="M14.521,20.612a.843.843,0,0,1-.316-.062.824.824,0,0,1-.506-.759V16a5.046,5.046,0,0,1-3.162-4.665V5.3A5.056,5.056,0,0,1,15.588.25H26.539a5.056,5.056,0,0,1,5.05,5.05v6.037a5.056,5.056,0,0,1-5.05,5.05H19.086L15.1,20.37a.822.822,0,0,1-.58.242M15.588,1.893A3.409,3.409,0,0,0,12.181,5.3v6.037a3.4,3.4,0,0,0,2.55,3.28.825.825,0,0,1,.611.8v2.394l2.822-2.822a.822.822,0,0,1,.582-.242h7.792a3.408,3.408,0,0,0,3.407-3.407V5.3a3.409,3.409,0,0,0-3.407-3.407Z" transform="translate(6.779 0.16)" fill="#79a3d2"/><path d="M14.521,20.612a.843.843,0,0,1-.316-.062.824.824,0,0,1-.506-.759V16a5.046,5.046,0,0,1-3.162-4.665V5.3A5.056,5.056,0,0,1,15.588.25H26.539a5.056,5.056,0,0,1,5.05,5.05v6.037a5.056,5.056,0,0,1-5.05,5.05H19.086L15.1,20.37A.822.822,0,0,1,14.521,20.612ZM15.588,1.893A3.409,3.409,0,0,0,12.181,5.3v6.037a3.4,3.4,0,0,0,2.55,3.28.825.825,0,0,1,.611.8v2.394l2.822-2.822a.822.822,0,0,1,.582-.242h7.792a3.408,3.408,0,0,0,3.407-3.407V5.3a3.409,3.409,0,0,0-3.407-3.407Z" transform="translate(6.779 0.16)" fill="none" stroke="#79a3d2" stroke-miterlimit="10" stroke-width="0.5"/><path d="M20.658,5.691A1.358,1.358,0,1,0,19.3,7.049a1.358,1.358,0,0,0,1.357-1.357" transform="translate(11.542 2.787)" fill="#79a3d2"/><path d="M20.658,5.691A1.358,1.358,0,1,0,19.3,7.049,1.358,1.358,0,0,0,20.658,5.691Z" transform="translate(11.542 2.787)" fill="none" stroke="#79a3d2" stroke-miterlimit="10" stroke-width="0.5"/><path d="M17.008,5.691a1.358,1.358,0,1,0-1.357,1.357,1.358,1.358,0,0,0,1.357-1.357" transform="translate(9.194 2.787)" fill="#79a3d2"/><path d="M17.008,5.691a1.358,1.358,0,1,0-1.357,1.357A1.358,1.358,0,0,0,17.008,5.691Z" transform="translate(9.194 2.787)" fill="none" stroke="#79a3d2" stroke-miterlimit="10" stroke-width="0.5"/></g></g></svg>