<svg xmlns="http://www.w3.org/2000/svg" xmlns:xlink="http://www.w3.org/1999/xlink" width="123.881" height="26.793" viewBox="0 0 123.881 26.793"><defs><clipPath id="a"><rect width="123.881" height="26.793" fill="none"/></clipPath></defs><g clip-path="url(#a)"><path d="M15.6,137.358a5.881,5.881,0,0,1-3.245-3.392c-.032-.085-.055-.169-.083-.254-.032.167-.057.3-.073.388-.931,5.075-4.375,5.844-6.776,5.657a4.887,4.887,0,0,1-3.682-1.643A4.2,4.2,0,0,1,.8,135.99c-.308,1.945-.576,3.85-.759,5.532-.411,3.782,2.553,6.116,7.184,4.631a93.776,93.776,0,0,0,9.263-3.616c.834-1.941,1.751-4.089,2-4.65a6.106,6.106,0,0,1-2.885-.529" transform="translate(0 -119.813)" fill="#fff"/><path d="M14.814,15.844a1.7,1.7,0,0,0,1.422.642,2.442,2.442,0,0,0,2.643-2.2c.369-1.8,2.2-11.182,2.579-13.118-2.977-1.583-7.161-2.43-8.395,3.4-.467,2.206-1.156,5.705-1.771,9.318h3.239a2,2,0,0,0,.284,1.959" transform="translate(-10.118 0)" fill="#fff"/><path d="M206.5,83.946c-.832-.592-1.723-1.208-2.646-1.833a6.209,6.209,0,0,1,.638,1.222,5.886,5.886,0,0,1-.156,4.692l-2.749,6.3c.8-.347,1.583-.683,2.359-1,5.7-2.315,5.641-7.184,2.554-9.381" transform="translate(-180.632 -73.578)" fill="#fff"/><path d="M131.737,31.576a5.8,5.8,0,0,1,3.358-.268c-1.667-1.067-3.322-2.091-4.839-2.994-.27,1.365-.636,3.216-.994,5.033a5.807,5.807,0,0,1,2.475-1.771" transform="translate(-115.826 -25.37)" fill="#fff"/><path d="M148.132,92.728a2.9,2.9,0,0,0,3.829-1.463,2.753,2.753,0,0,0,.054-2.206,2.969,2.969,0,0,0-.418-.746c-.046-.059-.1-.115-.146-.17-.012-.013-.022-.026-.033-.039a2.9,2.9,0,0,0-.928-.645,2.862,2.862,0,0,0-3.8,1.452,2.812,2.812,0,0,0-.07,2.211,2.916,2.916,0,0,0,.408.749,2.784,2.784,0,0,0,1.1.855" transform="translate(-131.209 -78.135)" fill="#fff"/><path d="M148.132,92.728a2.9,2.9,0,0,0,3.829-1.463,2.753,2.753,0,0,0,.054-2.206,2.969,2.969,0,0,0-.418-.746c-.046-.059-.1-.115-.146-.17-.012-.013-.022-.026-.033-.039a2.9,2.9,0,0,0-.928-.645,2.862,2.862,0,0,0-3.8,1.452,2.812,2.812,0,0,0-.07,2.211,2.916,2.916,0,0,0,.408.749,2.784,2.784,0,0,0,1.1.855" transform="translate(-131.209 -78.135)" fill="#fff"/><path d="M975.074,64.8a13.227,13.227,0,0,0-1.54,3.594,15.346,15.346,0,0,0-.451,3.765,14.786,14.786,0,0,0,.505,3.928,15.745,15.745,0,0,0,1.548,3.664h-1.477a11.66,11.66,0,0,1-1.8-3.507,13.513,13.513,0,0,1-.584-4.038,13.721,13.721,0,0,1,.56-4.006,10.408,10.408,0,0,1,1.773-3.4Z" transform="translate(-870.316 -58.062)" fill="#fff"/><path d="M1156.169,64.8a10.414,10.414,0,0,1,1.774,3.4,13.761,13.761,0,0,1,.559,4.006,13.547,13.547,0,0,1-.583,4.038,11.687,11.687,0,0,1-1.8,3.507h-1.479a15.734,15.734,0,0,0,1.548-3.664,14.784,14.784,0,0,0,.505-3.928,15.343,15.343,0,0,0-.451-3.765,13.253,13.253,0,0,0-1.539-3.594Z" transform="translate(-1034.621 -58.062)" fill="#fff"/><path d="M326.229,67.446v1.873h-1.874V73.57c0,3.4.661,4.44,2.031,5.148v1.968a5.378,5.378,0,0,1-3.1-2.22,5.378,5.378,0,0,1-3.1,2.22V78.718c1.37-.708,2.063-1.747,2.063-5.148V69.319h-1.905V67.446Zm-.9,5.164h1.9V67.273h2.078v14.2h-2.078v-6.99h-1.9Zm4.833-5.416h2.094V81.646h-2.094Z" transform="translate(-286.902 -60.209)" fill="#fff"/><path d="M489.015,74.042c0,2.535-.2,4.471-1.086,5.62a3.27,3.27,0,0,1-2.692,1.212,3.312,3.312,0,0,1-2.692-1.212c-.882-1.149-1.07-3.086-1.07-5.62,0-2.519.189-4.455,1.07-5.6a3.324,3.324,0,0,1,2.692-1.228,3.281,3.281,0,0,1,2.692,1.228c.882,1.149,1.086,3.086,1.086,5.6m-5.416,0c0,2.141.11,3.731.583,4.44a1.236,1.236,0,0,0,1.055.535,1.265,1.265,0,0,0,1.071-.535c.472-.709.567-2.3.567-4.44,0-2.125-.095-3.715-.567-4.424a1.265,1.265,0,0,0-1.071-.535,1.236,1.236,0,0,0-1.055.535c-.472.709-.583,2.3-.583,4.424m9.666,7.6h-2.157V67.194h2.157Z" transform="translate(-431.426 -60.209)" fill="#fff"/><path d="M649.062,80.686h-6.3V67.367h2.141V78.813h4.581a3.925,3.925,0,0,0,2.472-.583V67.194h2.157v5.731h2.172v1.858h-2.172v6.864h-2.157V79.978a4.386,4.386,0,0,1-2.9.709" transform="translate(-575.95 -60.209)" fill="#fff"/><path d="M801.631,70.732a4.352,4.352,0,0,1,1.228-3.369,4.394,4.394,0,0,1,5.2,0,5.236,5.236,0,0,1,0,6.738,4.329,4.329,0,0,1-5.2,0,4.329,4.329,0,0,1-1.228-3.369m1.008,10.375V75.991H804.8v3.243h8.99v1.873Zm1.1-10.375a2.824,2.824,0,0,0,.551,1.921,1.715,1.715,0,0,0,2.33,0,2.825,2.825,0,0,0,.551-1.921,2.853,2.853,0,0,0-.551-1.921,1.715,1.715,0,0,0-2.33,0,2.853,2.853,0,0,0-.551,1.921m7.635-4.14h2.157V76.73h-2.157Z" transform="translate(-718.303 -59.599)" fill="#fff"/><path d="M1022.011,75.77h12.847v1.873h-5.369v3.763h-2.157V77.644h-5.321Zm.724-8.879h11.4v1.874H1029.5c.173,2.22,2.267,3.464,4.755,3.9v1.874a9.529,9.529,0,0,1-5.841-2.787,9.528,9.528,0,0,1-5.841,2.787V72.669c2.472-.441,4.566-1.685,4.739-3.9h-4.581Z" transform="translate(-915.775 -59.938)" fill="#fff"/></g></svg>